<?xml version="1.0" encoding="utf-8"?>
<!-- Generator: Adobe Illustrator 19.0.0, SVG Export Plug-In . SVG Version: 6.00 Build 0)  -->
<svg version="1.1" id="Layer_1" xmlns="http://www.w3.org/2000/svg" xmlns:xlink="http://www.w3.org/1999/xlink" x="0px" y="0px"
	 viewBox="0 87.8 256 83.2" style="enable-background:new 0 87.8 256 83.2;" xml:space="preserve">
<style type="text/css">
	.st0{fill:#FFFFFF;}
</style>
<g id="XMLID_2_">
	<path id="XMLID_3_" class="st0" d="M54.8,143.1c-3.1,3.1-6.6,5.3-10.5,6.8s-8,2.2-12.4,2.2c-3.7,0-7.1-0.4-10.1-1.2
		c-3-0.8-5.7-1.9-8.1-3.4s-4.4-3.1-6.1-5.1s-3.1-4.1-4.3-6.4s-2-4.7-2.5-7.3C0.3,126.1,0,123.6,0,121c0-2.6,0.2-5.2,0.8-7.8
		s1.4-5.1,2.6-7.4c1.2-2.3,2.6-4.5,4.4-6.5s3.8-3.8,6.2-5.2s5-2.6,8-3.5s6.3-1.3,9.9-1.3c4.1,0,8,0.8,11.8,2.3s7.2,3.8,10.3,6.9
		l-7.5,7.3c-2-1.9-4.2-3.4-6.8-4.3c-2.6-0.9-5.1-1.4-7.7-1.4c-3.6,0-6.8,0.6-9.4,1.8c-2.6,1.2-4.8,2.9-6.5,4.9s-2.9,4.2-3.7,6.7
		s-1.2,5-1.2,7.5s0.4,5,1.2,7.4c0.8,2.4,2,4.6,3.6,6.5c1.7,1.9,3.8,3.5,6.4,4.7s5.8,1.8,9.5,1.8c1.3,0,2.7-0.1,4-0.4s2.7-0.7,4-1.2
		s2.6-1.2,3.8-1.9c1.2-0.8,2.3-1.6,3.3-2.6L54.8,143.1z"/>
	<path id="XMLID_5_" class="st0" d="M77.7,107.4c3.4,0,6.4,0.6,9.2,1.7c2.8,1.1,5.1,2.7,7,4.7s3.4,4.3,4.5,7s1.6,5.5,1.6,8.6
		c0,3.1-0.5,5.9-1.5,8.6s-2.5,5-4.4,7s-4.2,3.6-6.9,4.7c-2.7,1.1-5.8,1.7-9.3,1.7s-6.5-0.6-9.3-1.7c-2.8-1.1-5-2.7-6.9-4.7
		s-3.3-4.3-4.3-7s-1.5-5.6-1.5-8.6c0-3,0.5-5.9,1.5-8.6s2.5-5,4.4-7s4.2-3.6,6.9-4.7C71.3,108,74.4,107.4,77.7,107.4z M77.8,117
		c-1.9,0-3.6,0.4-5,1.1c-1.4,0.7-2.6,1.7-3.6,2.8c-1,1.2-1.7,2.5-2.2,4s-0.7,3-0.7,4.6c0,1.6,0.2,3.2,0.7,4.7s1.2,2.8,2.2,4
		c1,1.2,2.2,2.1,3.6,2.8c1.4,0.7,3.1,1,5,1s3.6-0.3,5-1c1.4-0.7,2.6-1.6,3.6-2.8c1-1.2,1.7-2.5,2.2-4s0.7-3.1,0.7-4.7
		c0-1.6-0.3-3.1-0.8-4.6s-1.3-2.8-2.3-4c-1-1.2-2.2-2.1-3.6-2.8C81.2,117.3,79.6,117,77.8,117z"/>
	<path id="XMLID_8_" class="st0" d="M110.6,150.7v-32.6h-7.9v-9.2h7.9V106c0-2.8,0.4-5.3,1.3-7.4c0.9-2.1,2.1-3.8,3.6-5.2
		s3.2-2.4,5.2-3s4-1,6.1-1c1.8,0,3.7,0.3,5.6,0.9s3.7,1.4,5.4,2.6l-3.9,7.8c-2.2-1.5-4.4-2.2-6.5-2.2c-0.9,0-1.7,0.2-2.5,0.5
		c-0.8,0.3-1.5,0.8-2,1.4s-1,1.4-1.3,2.4s-0.5,2.1-0.5,3.4v2.9h12.5v9.2h-12.5v32.6h-10.5V150.7z"/>
	<path id="XMLID_10_" class="st0" d="M152.3,108.1v42.6h-10.5v-42.6H152.3z"/>
	<path id="XMLID_13_" class="st0" d="M233.8,107.4c3.4,0,6.4,0.6,9.2,1.7c2.7,1.2,5.1,2.7,7,4.7s3.4,4.3,4.5,7
		c1,2.7,1.6,5.5,1.6,8.6c0,3.1-0.5,5.9-1.5,8.6s-2.5,5-4.4,7s-4.2,3.6-6.9,4.7c-2.7,1.2-5.8,1.7-9.3,1.7s-6.5-0.6-9.3-1.7
		c-2.7-1.2-5-2.7-6.9-4.7s-3.3-4.3-4.3-7s-1.5-5.6-1.5-8.6c0-3,0.5-5.9,1.5-8.6s2.5-5,4.4-7s4.2-3.6,6.9-4.7
		C227.4,108,230.5,107.4,233.8,107.4z M233.9,117c-1.9,0-3.6,0.4-5,1.1c-1.4,0.7-2.6,1.7-3.6,2.8c-1,1.1-1.7,2.5-2.2,4
		s-0.7,3-0.7,4.6c0,1.6,0.2,3.2,0.7,4.7s1.2,2.8,2.2,4c1,1.2,2.2,2.1,3.6,2.8c1.4,0.7,3.1,1,5,1s3.6-0.3,5-1
		c1.4-0.7,2.6-1.6,3.6-2.8c1-1.2,1.7-2.5,2.2-4s0.7-3.1,0.7-4.7c0-1.6-0.3-3.1-0.8-4.6s-1.3-2.8-2.3-4c-1-1.2-2.2-2.1-3.6-2.8
		S235.7,117,233.9,117z"/>
</g>
<g id="XMLID_12_">
	<path id="XMLID_16_" class="st0" d="M161.4,87.8c-0.4,1.1-0.8,2.3-1.1,3.5s-0.6,2.5-0.9,3.7c-0.3,1.3-0.7,2.4-1.2,3.4
		c-1,2.1-2.3,3.6-3.7,4.6c-1.5,1-3.1,1.7-4.8,1.9c-1.7,0.3-3.5,0.1-5.4-0.3c-1.9-0.5-3.7-1.2-5.5-2.1l3.7-7.2c1,0.4,1.9,0.7,2.7,1
		c0.8,0.2,1.6,0.3,2.3,0.2c0.7-0.1,1.3-0.3,1.8-0.6c0.5-0.3,1-0.9,1.4-1.6c0.6-1.1,1.1-2.4,1.4-3.7L161.4,87.8z"/>
</g>
<polygon id="XMLID_18_" class="st0" points="204.4,98.3 155.8,121.9 174.3,130.8 "/>
<g id="XMLID_1_">
	<polygon id="XMLID_21_" class="st0" points="204.4,99.6 181.3,133.6 204.2,146.1 	"/>
	<polygon id="XMLID_23_" class="st0" points="192.8,139.9 181.3,133.6 181.3,152.1 	"/>
</g>
<g id="XMLID_20_">
	<path id="XMLID_22_" class="st0" d="M204.4,152.1c0,2.9-0.5,5.6-1.6,7.9c-1.1,2.3-2.5,4.3-4.4,6c-1.9,1.6-4.1,2.9-6.7,3.8
		c-2.6,0.9-5.4,1.3-8.5,1.3s-5.9-0.4-8.5-1.3c-2.6-0.9-4.9-2.2-6.8-3.8c-1.9-1.7-3.4-3.6-4.5-6c-1.1-2.3-1.6-4.9-1.6-7.8h10.4
		c0,1.4,0.3,2.6,0.9,3.7c0.6,1.1,1.4,2.1,2.4,2.9s2.2,1.4,3.5,1.8s2.8,0.7,4.3,0.7s2.9-0.2,4.2-0.6c1.3-0.4,2.4-1,3.4-1.8
		c1-0.8,1.7-1.7,2.3-2.9s0.8-2.4,0.8-3.9C194,152.1,204.4,152.1,204.4,152.1z"/>
</g>
</svg>
